<?xml version="1.0" standalone="no"?>
<!DOCTYPE svg PUBLIC "-//W3C//DTD SVG 20010904//EN"
 "http://www.w3.org/TR/2001/REC-SVG-20010904/DTD/svg10.dtd">
<svg version="1.0" xmlns="http://www.w3.org/2000/svg"
 width="225.000000pt" height="225.000000pt" viewBox="0 0 225.000000 225.000000"
 preserveAspectRatio="xMidYMid meet">

<g transform="translate(0.000000,225.000000) scale(0.100000,-0.100000)"
fill="#000000" stroke="none">
<path d="M401 1513 c6 -397 6 -398 70 -591 28 -84 117 -274 139 -296 6 -6 20
1 36 17 22 23 36 27 80 27 50 0 56 3 109 53 33 30 69 76 86 109 17 34 40 63
57 72 40 21 67 54 101 125 17 35 36 69 42 77 7 9 8 14 1 14 -20 0 -73 52 -92
91 -31 60 -26 115 16 185 20 32 43 70 50 84 8 14 14 19 14 11 0 -8 3 -11 8 -7
4 4 9 56 12 114 l5 107 28 -111 c33 -134 35 -223 7 -289 -11 -26 -20 -61 -20
-78 l1 -32 17 34 c18 37 52 59 37 25 -4 -11 -11 -41 -16 -69 -5 -27 -15 -55
-23 -60 -11 -8 0 -22 55 -68 49 -41 76 -73 93 -110 14 -29 41 -68 61 -87 20
-19 46 -52 58 -74 18 -32 38 -46 124 -87 56 -27 105 -49 108 -49 11 0 103 203
129 285 50 156 56 215 58 593 l3 352 -730 0 -730 0 6 -367z"/>
</g>
</svg>
