<?xml version="1.0" standalone="no"?>
<!DOCTYPE svg PUBLIC "-//W3C//DTD SVG 20010904//EN"
 "http://www.w3.org/TR/2001/REC-SVG-20010904/DTD/svg10.dtd">
<svg version="1.0" xmlns="http://www.w3.org/2000/svg"
 width="225.000000pt" height="225.000000pt" viewBox="0 0 225.000000 225.000000"
 preserveAspectRatio="xMidYMid meet">

<g transform="translate(0.000000,225.000000) scale(0.100000,-0.100000)"
fill="#000000" stroke="none">
<path d="M1682 2018 c-5 -7 -15 -33 -22 -58 -14 -53 -53 -133 -86 -177 -13
-17 -24 -35 -24 -39 0 -4 28 -4 61 -1 67 6 202 65 213 92 6 18 -7 19 -36 4
-29 -16 -35 -2 -10 24 12 13 22 29 22 35 0 15 -36 16 -45 2 -3 -5 -11 -10 -16
-10 -6 0 -3 10 5 22 37 52 5 80 -34 31 -14 -18 -19 -21 -16 -10 23 71 16 118
-12 85z"/>
<path d="M1405 1810 c3 -5 1 -10 -6 -10 -10 0 -10 -3 -1 -12 9 -9 15 -9 23 -1
12 12 4 33 -12 33 -6 0 -7 -4 -4 -10z"/>
<path d="M1496 1639 c-16 -16 -43 -33 -60 -37 l-31 -9 40 -40 c24 -24 57 -45
80 -52 55 -15 127 -14 150 3 16 12 18 19 10 51 -8 31 -17 40 -50 53 -22 8 -54
26 -72 38 -17 13 -33 23 -35 23 -2 -1 -16 -15 -32 -30z"/>
<path d="M600 1226 c0 -236 2 -260 25 -351 13 -53 47 -144 75 -202 l50 -106
23 21 c15 15 36 22 61 22 30 0 46 8 85 45 27 25 52 57 55 70 3 13 24 38 46 55
24 19 53 57 71 91 l29 59 -36 33 c-50 46 -58 107 -20 171 14 24 34 52 43 62
11 10 19 39 22 78 l4 61 18 -70 c23 -86 24 -144 4 -192 -8 -19 -15 -47 -14
-62 0 -25 1 -25 9 -5 5 12 13 25 18 28 12 7 -5 -85 -17 -97 -6 -6 10 -25 39
-48 27 -21 57 -56 66 -76 10 -21 42 -66 72 -100 42 -48 69 -68 118 -89 63 -27
65 -27 79 -8 8 10 23 40 33 65 l20 46 -27 -4 c-25 -3 -25 -3 4 12 17 8 35 14
42 15 6 0 15 4 18 10 3 6 -1 7 -9 4 -14 -5 -14 -2 -1 37 21 58 45 200 45 261
0 38 6 57 24 79 l24 28 41 -67 c27 -45 41 -80 41 -103 -1 -45 -30 -107 -76
-160 l-38 -44 37 35 c44 41 87 122 87 165 0 16 -4 44 -9 61 -7 25 -5 38 9 59
l17 27 7 -36 c4 -20 4 -41 0 -48 -4 -7 -3 -8 4 -4 7 4 12 -11 15 -46 2 -34 4
-21 5 37 1 62 -3 98 -13 115 -8 15 -15 54 -15 95 0 73 -20 131 -60 182 -21 27
-27 25 -10 -5 20 -36 50 -143 50 -179 l-1 -38 -14 25 c-8 14 -14 33 -15 43 0
9 -4 17 -9 17 -4 0 -6 12 -3 26 4 24 3 25 -16 15 -17 -9 -21 -8 -25 7 -3 9 -6
-10 -7 -43 -1 -46 -4 -55 -11 -40 -7 15 -8 13 -3 -12 3 -21 -1 -44 -15 -70
l-20 -38 0 150 c0 134 1 148 14 131 13 -17 15 -17 15 -3 0 9 -17 25 -40 37
-38 19 -57 20 -540 20 l-500 0 0 -254z m1159 0 c21 -34 26 -84 12 -121 -7 -17
-11 -15 -35 22 -21 32 -25 47 -19 69 9 34 10 41 12 54 2 17 8 12 30 -24z"/>
<path d="M1822 920 c0 -14 2 -19 5 -12 2 6 2 18 0 25 -3 6 -5 1 -5 -13z"/>
<path d="M1811 874 c0 -11 3 -14 6 -6 3 7 2 16 -1 19 -3 4 -6 -2 -5 -13z"/>
<path d="M1801 834 c0 -11 3 -14 6 -6 3 7 2 16 -1 19 -3 4 -6 -2 -5 -13z"/>
</g>
</svg>
